<?xml version="1.0" standalone="no"?>
<!DOCTYPE svg PUBLIC "-//W3C//DTD SVG 20010904//EN"
 "http://www.w3.org/TR/2001/REC-SVG-20010904/DTD/svg10.dtd">
<svg version="1.0" xmlns="http://www.w3.org/2000/svg"
 width="165.000000pt" height="196.000000pt" viewBox="0 0 165.000000 196.000000"
 preserveAspectRatio="xMidYMid meet">

<g transform="translate(0.000000,196.000000) scale(0.100000,-0.100000)"
fill="#000000" stroke="none">
<path d="M260 1590 l0 -90 133 0 c161 0 249 -19 370 -82 99 -51 222 -169 280
-268 65 -113 89 -204 95 -367 l5 -143 88 0 89 0 0 500 0 500 -90 0 -90 0 0
-153 0 -154 -88 87 c-182 180 -385 260 -664 260 l-128 0 0 -90z"/>
<path d="M260 995 l0 -355 362 0 361 0 -6 103 c-11 182 -65 306 -186 427 -123
123 -265 179 -448 180 l-83 0 0 -355z m289 133 c110 -52 211 -172 237 -280 l6
-28 -176 0 -176 0 0 170 c0 198 -5 192 109 138z"/>
<path d="M280 325 l0 -125 40 0 39 0 3 55 3 55 44 -55 c38 -47 49 -55 77 -55
l34 0 0 125 0 125 -40 0 -39 0 -3 -56 -3 -57 -45 57 c-38 47 -50 56 -77 56
l-33 0 0 -125z"/>
<path d="M560 325 l0 -125 100 0 100 0 0 35 0 35 -60 0 c-47 0 -60 3 -60 15 0
11 12 15 50 15 49 0 50 1 50 30 0 29 -1 30 -51 30 -36 0 -49 4 -46 13 2 7 24
12 58 13 53 1 54 1 57 32 l3 32 -100 0 -101 0 0 -125z"/>
<path d="M780 443 c0 -5 17 -60 38 -123 l37 -115 44 0 44 0 18 54 c11 30 21
56 23 58 2 2 13 -22 23 -54 l20 -58 43 0 43 0 32 95 c17 52 35 108 39 123 7
28 6 28 -31 25 -35 -3 -39 -6 -56 -53 -10 -27 -20 -57 -23 -65 -4 -9 -15 11
-28 50 -22 62 -24 65 -58 68 l-36 3 -22 -65 c-12 -37 -23 -66 -25 -66 -2 0
-13 29 -25 65 l-22 65 -39 0 c-21 0 -39 -3 -39 -7z"/>
<path d="M1245 439 c-30 -17 -45 -40 -45 -69 0 -35 28 -59 84 -73 25 -7 45
-16 43 -22 -2 -12 -52 -13 -84 -1 -19 6 -25 3 -33 -20 -16 -40 0 -49 86 -49
71 0 77 2 100 28 44 52 21 100 -59 120 -62 16 -60 33 3 30 46 -2 50 0 56 23 4
14 3 28 0 32 -12 12 -131 13 -151 1z"/>
</g>
</svg>
