<svg width="235" height="46" viewBox="0 0 235 46" fill="none" xmlns="http://www.w3.org/2000/svg">
<g filter="url(#filter0_d_6_2)">
<mask id="path-1-outside-1_6_2" maskUnits="userSpaceOnUse" x="3" y="-1" width="230" height="40" fill="black">
<rect fill="white" x="3" y="-1" width="230" height="40"/>
<path d="M4.016 37V1.172H10.464L18.836 20.464H19.044L18.68 1.172H25.544V37H19.044L10.776 17.916H10.568L10.828 37H4.016ZM47.3101 21.4H38.2621V30.344H48.5581V37H30.9301V1.172H47.9341V7.776H38.2621V14.952H47.3101V21.4ZM56.1789 37L49.0549 1.172H56.5949L59.9749 24.572H60.1829L64.1869 4.084H70.2189L73.9109 24.312H74.1189L77.4469 1.172H84.8829L77.6549 37H70.7389L67.0469 19.684H66.8389L62.8349 37H56.1789ZM85.6564 29.252C86.7657 29.5293 87.9791 29.824 89.2964 30.136C90.6484 30.4133 91.8271 30.552 92.8324 30.552C94.4617 30.552 95.5711 30.2573 96.1604 29.668C96.7497 29.044 97.0444 28.056 97.0444 26.704C97.0444 25.872 96.6977 25.0227 96.0044 24.156C95.3457 23.2893 94.3924 22.44 93.1444 21.608C92.0697 20.9147 91.0471 20.1693 90.0764 19.372C89.1057 18.5747 88.2564 17.7427 87.5284 16.876C86.8004 15.9747 86.2111 15.0387 85.7604 14.068C85.3444 13.0627 85.1364 11.988 85.1364 10.844C85.1364 9.388 85.3271 8.05333 85.7084 6.84C86.0897 5.62667 86.7137 4.56933 87.5804 3.668C88.4817 2.76666 89.6431 2.07333 91.0644 1.588C92.4857 1.068 94.2364 0.807998 96.3164 0.807998C97.4951 0.807998 98.7257 0.998664 100.008 1.38C101.291 1.72667 102.383 2.07333 103.284 2.42L101.152 8.764C100.286 8.27866 99.5057 7.932 98.8124 7.724C98.1537 7.48133 97.3391 7.36 96.3684 7.36C94.8084 7.36 93.7511 7.65466 93.1964 8.244C92.6417 8.83333 92.3644 9.52667 92.3644 10.324C92.3644 10.8093 92.5204 11.2947 92.8324 11.78C93.1444 12.2307 93.5431 12.6813 94.0284 13.132C94.5137 13.548 95.0511 13.964 95.6404 14.38C96.2644 14.796 96.8884 15.212 97.5124 15.628C98.7604 16.4253 99.8177 17.24 100.684 18.072C101.586 18.8693 102.314 19.7187 102.868 20.62C103.458 21.4867 103.874 22.4227 104.116 23.428C104.394 24.3987 104.532 25.4733 104.532 26.652C104.532 28.212 104.272 29.6507 103.752 30.968C103.267 32.2507 102.539 33.36 101.568 34.296C100.598 35.232 99.3671 35.96 97.8764 36.48C96.4204 37 94.7391 37.26 92.8324 37.26C91.4111 37.1907 89.9551 37 88.4644 36.688C86.9737 36.376 85.6737 36.0293 84.5644 35.648L85.6564 29.252ZM106.797 1.172H114.181V30.448H123.957V37H106.797V1.172ZM142.931 21.4H133.883V30.344H144.179V37H126.551V1.172H143.555V7.776H133.883V14.952H142.931V21.4ZM150.968 7.88H144.624V1.172H164.644V7.88H158.248V37H150.968V7.88ZM171.382 7.88H165.038V1.172H185.058V7.88H178.662V37H171.382V7.88ZM204.224 21.4H195.176V30.344H205.472V37H187.844V1.172H204.848V7.776H195.176V14.952H204.224V21.4ZM208.309 1.64C209.592 1.46666 210.909 1.31066 212.261 1.172C213.648 0.998666 214.93 0.912 216.109 0.912C218.328 0.912 220.2 1.15467 221.725 1.64C223.285 2.12533 224.533 2.81867 225.469 3.72C226.44 4.62133 227.133 5.71333 227.549 6.996C227.965 8.27867 228.173 9.73467 228.173 11.364C228.173 13.4093 227.826 15.1947 227.133 16.72C226.474 18.2453 225.348 19.4413 223.753 20.308C224.897 21.6253 225.729 22.9427 226.249 24.26C226.804 25.5427 227.254 26.86 227.601 28.212C227.982 29.564 228.381 30.968 228.797 32.424C229.248 33.8453 229.924 35.3707 230.825 37H223.285C222.765 36.4453 222.314 35.7173 221.933 34.816C221.586 33.9147 221.257 32.944 220.945 31.904C220.633 30.864 220.321 29.824 220.009 28.784C219.732 27.744 219.42 26.7907 219.073 25.924C218.726 25.0227 218.31 24.2773 217.825 23.688C217.34 23.0987 216.768 22.7347 216.109 22.596H215.537V37H208.309V1.64ZM215.537 16.356H215.901C217.773 16.356 219.056 15.94 219.749 15.108C220.442 14.276 220.789 13.132 220.789 11.676C220.789 10.3587 220.546 9.26667 220.061 8.4C219.61 7.53333 218.692 7.13466 217.305 7.204L215.589 7.308L215.537 16.356Z"/>
</mask>
<path d="M4.016 37V1.172H10.464L18.836 20.464H19.044L18.68 1.172H25.544V37H19.044L10.776 17.916H10.568L10.828 37H4.016ZM47.3101 21.4H38.2621V30.344H48.5581V37H30.9301V1.172H47.9341V7.776H38.2621V14.952H47.3101V21.4ZM56.1789 37L49.0549 1.172H56.5949L59.9749 24.572H60.1829L64.1869 4.084H70.2189L73.9109 24.312H74.1189L77.4469 1.172H84.8829L77.6549 37H70.7389L67.0469 19.684H66.8389L62.8349 37H56.1789ZM85.6564 29.252C86.7657 29.5293 87.9791 29.824 89.2964 30.136C90.6484 30.4133 91.8271 30.552 92.8324 30.552C94.4617 30.552 95.5711 30.2573 96.1604 29.668C96.7497 29.044 97.0444 28.056 97.0444 26.704C97.0444 25.872 96.6977 25.0227 96.0044 24.156C95.3457 23.2893 94.3924 22.44 93.1444 21.608C92.0697 20.9147 91.0471 20.1693 90.0764 19.372C89.1057 18.5747 88.2564 17.7427 87.5284 16.876C86.8004 15.9747 86.2111 15.0387 85.7604 14.068C85.3444 13.0627 85.1364 11.988 85.1364 10.844C85.1364 9.388 85.3271 8.05333 85.7084 6.84C86.0897 5.62667 86.7137 4.56933 87.5804 3.668C88.4817 2.76666 89.6431 2.07333 91.0644 1.588C92.4857 1.068 94.2364 0.807998 96.3164 0.807998C97.4951 0.807998 98.7257 0.998664 100.008 1.38C101.291 1.72667 102.383 2.07333 103.284 2.42L101.152 8.764C100.286 8.27866 99.5057 7.932 98.8124 7.724C98.1537 7.48133 97.3391 7.36 96.3684 7.36C94.8084 7.36 93.7511 7.65466 93.1964 8.244C92.6417 8.83333 92.3644 9.52667 92.3644 10.324C92.3644 10.8093 92.5204 11.2947 92.8324 11.78C93.1444 12.2307 93.5431 12.6813 94.0284 13.132C94.5137 13.548 95.0511 13.964 95.6404 14.38C96.2644 14.796 96.8884 15.212 97.5124 15.628C98.7604 16.4253 99.8177 17.24 100.684 18.072C101.586 18.8693 102.314 19.7187 102.868 20.62C103.458 21.4867 103.874 22.4227 104.116 23.428C104.394 24.3987 104.532 25.4733 104.532 26.652C104.532 28.212 104.272 29.6507 103.752 30.968C103.267 32.2507 102.539 33.36 101.568 34.296C100.598 35.232 99.3671 35.96 97.8764 36.48C96.4204 37 94.7391 37.26 92.8324 37.26C91.4111 37.1907 89.9551 37 88.4644 36.688C86.9737 36.376 85.6737 36.0293 84.5644 35.648L85.6564 29.252ZM106.797 1.172H114.181V30.448H123.957V37H106.797V1.172ZM142.931 21.4H133.883V30.344H144.179V37H126.551V1.172H143.555V7.776H133.883V14.952H142.931V21.4ZM150.968 7.88H144.624V1.172H164.644V7.88H158.248V37H150.968V7.88ZM171.382 7.88H165.038V1.172H185.058V7.88H178.662V37H171.382V7.88ZM204.224 21.4H195.176V30.344H205.472V37H187.844V1.172H204.848V7.776H195.176V14.952H204.224V21.4ZM208.309 1.64C209.592 1.46666 210.909 1.31066 212.261 1.172C213.648 0.998666 214.93 0.912 216.109 0.912C218.328 0.912 220.2 1.15467 221.725 1.64C223.285 2.12533 224.533 2.81867 225.469 3.72C226.44 4.62133 227.133 5.71333 227.549 6.996C227.965 8.27867 228.173 9.73467 228.173 11.364C228.173 13.4093 227.826 15.1947 227.133 16.72C226.474 18.2453 225.348 19.4413 223.753 20.308C224.897 21.6253 225.729 22.9427 226.249 24.26C226.804 25.5427 227.254 26.86 227.601 28.212C227.982 29.564 228.381 30.968 228.797 32.424C229.248 33.8453 229.924 35.3707 230.825 37H223.285C222.765 36.4453 222.314 35.7173 221.933 34.816C221.586 33.9147 221.257 32.944 220.945 31.904C220.633 30.864 220.321 29.824 220.009 28.784C219.732 27.744 219.42 26.7907 219.073 25.924C218.726 25.0227 218.31 24.2773 217.825 23.688C217.34 23.0987 216.768 22.7347 216.109 22.596H215.537V37H208.309V1.64ZM215.537 16.356H215.901C217.773 16.356 219.056 15.94 219.749 15.108C220.442 14.276 220.789 13.132 220.789 11.676C220.789 10.3587 220.546 9.26667 220.061 8.4C219.61 7.53333 218.692 7.13466 217.305 7.204L215.589 7.308L215.537 16.356Z" fill="#F7F7F4"/>
<path d="M4.016 37H3.016V38H4.016V37ZM4.016 1.172V0.171999H3.016V1.172H4.016ZM10.464 1.172L11.3813 0.773906L11.1201 0.171999H10.464V1.172ZM18.836 20.464L17.9187 20.8621L18.1799 21.464H18.836V20.464ZM19.044 20.464V21.464H20.063L20.0438 20.4451L19.044 20.464ZM18.68 1.172V0.171999H17.661L17.6802 1.19086L18.68 1.172ZM25.544 1.172H26.544V0.171999H25.544V1.172ZM25.544 37V38H26.544V37H25.544ZM19.044 37L18.1264 37.3975L18.3874 38H19.044V37ZM10.776 17.916L11.6936 17.5185L11.4326 16.916H10.776V17.916ZM10.568 17.916V16.916H9.55428L9.56809 17.9296L10.568 17.916ZM10.828 37V38H11.8417L11.8279 36.9864L10.828 37ZM5.016 37V1.172H3.016V37H5.016ZM4.016 2.172H10.464V0.171999H4.016V2.172ZM9.54666 1.57009L17.9187 20.8621L19.7533 20.0659L11.3813 0.773906L9.54666 1.57009ZM18.836 21.464H19.044V19.464H18.836V21.464ZM20.0438 20.4451L19.6798 1.15313L17.6802 1.19086L18.0442 20.4829L20.0438 20.4451ZM18.68 2.172H25.544V0.171999H18.68V2.172ZM24.544 1.172V37H26.544V1.172H24.544ZM25.544 36H19.044V38H25.544V36ZM19.9616 36.6025L11.6936 17.5185L9.85841 18.3135L18.1264 37.3975L19.9616 36.6025ZM10.776 16.916H10.568V18.916H10.776V16.916ZM9.56809 17.9296L9.82809 37.0136L11.8279 36.9864L11.5679 17.9024L9.56809 17.9296ZM10.828 36H4.016V38H10.828V36ZM47.3101 21.4V22.4H48.3101V21.4H47.3101ZM38.2621 21.4V20.4H37.2621V21.4H38.2621ZM38.2621 30.344H37.2621V31.344H38.2621V30.344ZM48.5581 30.344H49.5581V29.344H48.5581V30.344ZM48.5581 37V38H49.5581V37H48.5581ZM30.9301 37H29.9301V38H30.9301V37ZM30.9301 1.172V0.171999H29.9301V1.172H30.9301ZM47.9341 1.172H48.9341V0.171999H47.9341V1.172ZM47.9341 7.776V8.776H48.9341V7.776H47.9341ZM38.2621 7.776V6.776H37.2621V7.776H38.2621ZM38.2621 14.952H37.2621V15.952H38.2621V14.952ZM47.3101 14.952H48.3101V13.952H47.3101V14.952ZM47.3101 20.4H38.2621V22.4H47.3101V20.4ZM37.2621 21.4V30.344H39.2621V21.4H37.2621ZM38.2621 31.344H48.5581V29.344H38.2621V31.344ZM47.5581 30.344V37H49.5581V30.344H47.5581ZM48.5581 36H30.9301V38H48.5581V36ZM31.9301 37V1.172H29.9301V37H31.9301ZM30.9301 2.172H47.9341V0.171999H30.9301V2.172ZM46.9341 1.172V7.776H48.9341V1.172H46.9341ZM47.9341 6.776H38.2621V8.776H47.9341V6.776ZM37.2621 7.776V14.952H39.2621V7.776H37.2621ZM38.2621 15.952H47.3101V13.952H38.2621V15.952ZM46.3101 14.952V21.4H48.3101V14.952H46.3101ZM56.1789 37L55.1981 37.195L55.3582 38H56.1789V37ZM49.0549 1.172V0.171999H47.8365L48.0741 1.36702L49.0549 1.172ZM56.5949 1.172L57.5846 1.02904L57.4608 0.171999H56.5949V1.172ZM59.9749 24.572L58.9852 24.715L59.109 25.572H59.9749V24.572ZM60.1829 24.572V25.572H61.0064L61.1643 24.7638L60.1829 24.572ZM64.1869 4.084V3.084H63.3634L63.2055 3.8922L64.1869 4.084ZM70.2189 4.084L71.2027 3.90445L71.0529 3.084H70.2189V4.084ZM73.9109 24.312L72.9272 24.4916L73.0769 25.312H73.9109V24.312ZM74.1189 24.312V25.312H74.9854L75.1087 24.4544L74.1189 24.312ZM77.4469 1.172V0.171999H76.5804L76.4571 1.02964L77.4469 1.172ZM84.8829 1.172L85.8632 1.36976L86.1048 0.171999H84.8829V1.172ZM77.6549 37V38H78.4733L78.6352 37.1978L77.6549 37ZM70.7389 37L69.7609 37.2085L69.9296 38H70.7389V37ZM67.0469 19.684L68.0249 19.4755L67.8562 18.684H67.0469V19.684ZM66.8389 19.684V18.684H66.0438L65.8646 19.4587L66.8389 19.684ZM62.8349 37V38H63.6301L63.8092 37.2253L62.8349 37ZM57.1597 36.805L50.0357 0.976978L48.0741 1.36702L55.1981 37.195L57.1597 36.805ZM49.0549 2.172H56.5949V0.171999H49.0549V2.172ZM55.6052 1.31496L58.9852 24.715L60.9646 24.429L57.5846 1.02904L55.6052 1.31496ZM59.9749 25.572H60.1829V23.572H59.9749V25.572ZM61.1643 24.7638L65.1683 4.2758L63.2055 3.8922L59.2015 24.3802L61.1643 24.7638ZM64.1869 5.084H70.2189V3.084H64.1869V5.084ZM69.2352 4.26355L72.9272 24.4916L74.8947 24.1324L71.2027 3.90445L69.2352 4.26355ZM73.9109 25.312H74.1189V23.312H73.9109V25.312ZM75.1087 24.4544L78.4367 1.31435L76.4571 1.02964L73.1291 24.1696L75.1087 24.4544ZM77.4469 2.172H84.8829V0.171999H77.4469V2.172ZM83.9027 0.974242L76.6747 36.8022L78.6352 37.1978L85.8632 1.36976L83.9027 0.974242ZM77.6549 36H70.7389V38H77.6549V36ZM71.7169 36.7915L68.0249 19.4755L66.0689 19.8925L69.7609 37.2085L71.7169 36.7915ZM67.0469 18.684H66.8389V20.684H67.0469V18.684ZM65.8646 19.4587L61.8606 36.7747L63.8092 37.2253L67.8132 19.9093L65.8646 19.4587ZM62.8349 36H56.1789V38H62.8349V36ZM85.6564 29.252L85.8989 28.2819L84.8522 28.0202L84.6707 29.0837L85.6564 29.252ZM89.2964 30.136L89.0659 31.1091L89.0807 31.1126L89.0955 31.1156L89.2964 30.136ZM96.1604 29.668L96.8675 30.3751L96.8776 30.365L96.8874 30.3546L96.1604 29.668ZM96.0044 24.156L95.2082 24.7611L95.2158 24.771L95.2235 24.7807L96.0044 24.156ZM93.1444 21.608L93.6991 20.7759L93.6929 20.7718L93.6865 20.7677L93.1444 21.608ZM90.0764 19.372L90.7111 18.5993L90.7111 18.5993L90.0764 19.372ZM87.5284 16.876L86.7505 17.5043L86.7565 17.5118L86.7627 17.5192L87.5284 16.876ZM85.7604 14.068L84.8364 14.4504L84.8445 14.4699L84.8534 14.4891L85.7604 14.068ZM85.7084 6.84L84.7544 6.54017L84.7544 6.54017L85.7084 6.84ZM87.5804 3.668L86.8733 2.96089L86.8664 2.96782L86.8596 2.97489L87.5804 3.668ZM91.0644 1.588L91.3876 2.53435L91.3978 2.53084L91.408 2.52712L91.0644 1.588ZM100.008 1.38L99.7234 2.33853L99.7354 2.3421L99.7475 2.34536L100.008 1.38ZM103.284 2.42L104.232 2.73856L104.537 1.83053L103.643 1.48665L103.284 2.42ZM101.152 8.764L100.664 9.6365L101.716 10.2258L102.1 9.08256L101.152 8.764ZM98.8124 7.724L98.4667 8.66234L98.4956 8.67298L98.5251 8.68183L98.8124 7.724ZM92.8324 11.78L91.9912 12.3208L92.0005 12.3351L92.0102 12.3492L92.8324 11.78ZM94.0284 13.132L93.348 13.8648L93.3625 13.8783L93.3776 13.8913L94.0284 13.132ZM95.6404 14.38L95.0637 15.197L95.0746 15.2047L95.0857 15.212L95.6404 14.38ZM97.5124 15.628L96.9577 16.46L96.9658 16.4655L96.974 16.4707L97.5124 15.628ZM100.684 18.072L99.9919 18.7934L100.007 18.8075L100.022 18.821L100.684 18.072ZM102.868 20.62L102.017 21.1441L102.029 21.1635L102.041 21.1823L102.868 20.62ZM104.116 23.428L103.144 23.6626L103.149 23.6828L103.155 23.7027L104.116 23.428ZM103.752 30.968L102.822 30.6008L102.82 30.6075L102.817 30.6141L103.752 30.968ZM101.568 34.296L102.263 35.0158L102.263 35.0158L101.568 34.296ZM97.8764 36.48L97.547 35.5358L97.5401 35.5383L97.8764 36.48ZM92.8324 37.26L92.7837 38.2588L92.808 38.26H92.8324V37.26ZM88.4644 36.688L88.6693 35.7092L88.6693 35.7092L88.4644 36.688ZM84.5644 35.648L83.5787 35.4797L83.4356 36.3174L84.2393 36.5937L84.5644 35.648ZM85.4139 30.2221C86.5279 30.5006 87.7453 30.7963 89.0659 31.1091L89.5269 29.1629C88.2129 28.8517 87.0036 28.558 85.8989 28.2819L85.4139 30.2221ZM89.0955 31.1156C90.491 31.4019 91.7399 31.552 92.8324 31.552V29.552C91.9143 29.552 90.8058 29.4248 89.4974 29.1564L89.0955 31.1156ZM92.8324 31.552C94.5047 31.552 95.977 31.2656 96.8675 30.3751L95.4533 28.9609C95.1651 29.2491 94.4188 29.552 92.8324 29.552V31.552ZM96.8874 30.3546C97.7295 29.463 98.0444 28.1703 98.0444 26.704H96.0444C96.0444 27.9417 95.77 28.625 95.4334 28.9814L96.8874 30.3546ZM98.0444 26.704C98.0444 25.5792 97.573 24.516 96.7853 23.5313L95.2235 24.7807C95.8224 25.5293 96.0444 26.1648 96.0444 26.704H98.0444ZM96.8006 23.5509C96.0545 22.5692 95.0072 21.648 93.6991 20.7759L92.5897 22.4401C93.7776 23.232 94.637 24.0094 95.2082 24.7611L96.8006 23.5509ZM93.6865 20.7677C92.6434 20.0947 91.6517 19.3719 90.7111 18.5993L89.4417 20.1447C90.4424 20.9668 91.4961 21.7346 92.6023 22.4483L93.6865 20.7677ZM90.7111 18.5993C89.7829 17.8368 88.9785 17.0476 88.2941 16.2328L86.7627 17.5192C87.5343 18.4378 88.4286 19.3125 89.4417 20.1447L90.7111 18.5993ZM88.3063 16.2477C87.6255 15.4047 87.081 14.5376 86.6674 13.6469L84.8534 14.4891C85.3412 15.5397 85.9753 16.5447 86.7505 17.5043L88.3063 16.2477ZM86.6844 13.6856C86.3211 12.8077 86.1364 11.8637 86.1364 10.844H84.1364C84.1364 12.1123 84.3677 13.3176 84.8364 14.4504L86.6844 13.6856ZM86.1364 10.844C86.1364 9.47526 86.3156 8.24326 86.6624 7.13982L84.7544 6.54017C84.3385 7.86341 84.1364 9.30074 84.1364 10.844H86.1364ZM86.6624 7.13982C86.9982 6.07121 87.5435 5.14915 88.3012 4.36111L86.8596 2.97489C85.884 3.98952 85.1812 5.18212 84.7544 6.54017L86.6624 7.13982ZM88.2875 4.3751C89.0632 3.59944 90.0852 2.97906 91.3876 2.53435L90.7413 0.641647C89.201 1.1676 87.9003 1.93389 86.8733 2.96089L88.2875 4.3751ZM91.408 2.52712C92.6865 2.05936 94.3128 1.808 96.3164 1.808V-0.192002C94.16 -0.192002 92.2849 0.0766365 90.7208 0.648874L91.408 2.52712ZM96.3164 1.808C97.3866 1.808 98.521 1.98105 99.7234 2.33853L100.293 0.42146C98.9305 0.0162823 97.6036 -0.192002 96.3164 -0.192002V1.808ZM99.7475 2.34536C101.008 2.68612 102.066 3.02264 102.925 3.35334L103.643 1.48665C102.701 1.12403 101.574 0.767209 100.269 0.414634L99.7475 2.34536ZM102.337 2.10144L100.205 8.44544L102.1 9.08256L104.232 2.73856L102.337 2.10144ZM101.641 7.89149C100.732 7.38264 99.8835 7.0013 99.0998 6.76617L98.5251 8.68183C99.128 8.8627 99.8391 9.17469 100.664 9.6365L101.641 7.89149ZM99.1581 6.78566C98.3553 6.48987 97.4151 6.36 96.3684 6.36V8.36C97.263 8.36 97.9522 8.47279 98.4667 8.66234L99.1581 6.78566ZM96.3684 6.36C94.7607 6.36 93.3256 6.64768 92.4682 7.55863L93.9246 8.92936C94.1766 8.66165 94.8561 8.36 96.3684 8.36V6.36ZM92.4682 7.55863C91.7419 8.33037 91.3644 9.26771 91.3644 10.324H93.3644C93.3644 9.78562 93.5416 9.3363 93.9246 8.92936L92.4682 7.55863ZM91.3644 10.324C91.3644 11.0348 91.5954 11.705 91.9912 12.3208L93.6736 11.2392C93.4454 10.8843 93.3644 10.5839 93.3644 10.324H91.3644ZM92.0102 12.3492C92.3709 12.8702 92.8202 13.3747 93.348 13.8648L94.7089 12.3992C94.266 11.988 93.9179 11.5912 93.6546 11.2108L92.0102 12.3492ZM93.3776 13.8913C93.8895 14.33 94.452 14.7652 95.0637 15.197L96.2171 13.563C95.6502 13.1628 95.138 12.766 94.6792 12.3727L93.3776 13.8913ZM95.0857 15.212C95.7097 15.628 96.3337 16.044 96.9577 16.46L98.0671 14.7959C97.4431 14.3799 96.8191 13.9639 96.1951 13.5479L95.0857 15.212ZM96.974 16.4707C98.179 17.2405 99.1819 18.0158 99.9919 18.7934L101.377 17.3506C100.454 16.4642 99.3418 15.6101 98.0508 14.7853L96.974 16.4707ZM100.022 18.821C100.859 19.5619 101.52 20.3372 102.017 21.1441L103.72 20.0959C103.107 19.1001 102.312 18.1768 101.347 17.323L100.022 18.821ZM102.041 21.1823C102.564 21.9507 102.93 22.776 103.144 23.6626L105.088 23.1934C104.817 22.0694 104.351 21.0226 103.695 20.0577L102.041 21.1823ZM103.155 23.7027C103.403 24.5706 103.532 25.5511 103.532 26.652H105.532C105.532 25.3956 105.385 24.2268 105.078 23.1533L103.155 23.7027ZM103.532 26.652C103.532 28.0991 103.292 29.4117 102.822 30.6008L104.683 31.3352C105.253 29.8896 105.532 28.3249 105.532 26.652H103.532ZM102.817 30.6141C102.383 31.7609 101.737 32.7446 100.874 33.5762L102.263 35.0158C103.342 33.9754 104.151 32.7404 104.688 31.3219L102.817 30.6141ZM100.874 33.5762C100.024 34.3962 98.9244 35.0553 97.547 35.5358L98.2058 37.4242C99.8097 36.8647 101.172 36.0678 102.263 35.0158L100.874 33.5762ZM97.5401 35.5383C96.2139 36.0119 94.6502 36.26 92.8324 36.26V38.26C94.8279 38.26 96.627 37.9881 98.2127 37.4217L97.5401 35.5383ZM92.8811 36.2612C91.5158 36.1946 90.1121 36.0112 88.6693 35.7092L88.2595 37.6668C89.7981 37.9888 91.3063 38.1867 92.7837 38.2588L92.8811 36.2612ZM88.6693 35.7092C87.208 35.4034 85.9499 35.0668 84.8895 34.7023L84.2393 36.5937C85.3976 36.9918 86.7394 37.3486 88.2595 37.6668L88.6693 35.7092ZM85.5501 35.8163L86.6421 29.4203L84.6707 29.0837L83.5787 35.4797L85.5501 35.8163ZM106.797 1.172V0.171999H105.797V1.172H106.797ZM114.181 1.172H115.181V0.171999H114.181V1.172ZM114.181 30.448H113.181V31.448H114.181V30.448ZM123.957 30.448H124.957V29.448H123.957V30.448ZM123.957 37V38H124.957V37H123.957ZM106.797 37H105.797V38H106.797V37ZM106.797 2.172H114.181V0.171999H106.797V2.172ZM113.181 1.172V30.448H115.181V1.172H113.181ZM114.181 31.448H123.957V29.448H114.181V31.448ZM122.957 30.448V37H124.957V30.448H122.957ZM123.957 36H106.797V38H123.957V36ZM107.797 37V1.172H105.797V37H107.797ZM142.931 21.4V22.4H143.931V21.4H142.931ZM133.883 21.4V20.4H132.883V21.4H133.883ZM133.883 30.344H132.883V31.344H133.883V30.344ZM144.179 30.344H145.179V29.344H144.179V30.344ZM144.179 37V38H145.179V37H144.179ZM126.551 37H125.551V38H126.551V37ZM126.551 1.172V0.171999H125.551V1.172H126.551ZM143.555 1.172H144.555V0.171999H143.555V1.172ZM143.555 7.776V8.776H144.555V7.776H143.555ZM133.883 7.776V6.776H132.883V7.776H133.883ZM133.883 14.952H132.883V15.952H133.883V14.952ZM142.931 14.952H143.931V13.952H142.931V14.952ZM142.931 20.4H133.883V22.4H142.931V20.4ZM132.883 21.4V30.344H134.883V21.4H132.883ZM133.883 31.344H144.179V29.344H133.883V31.344ZM143.179 30.344V37H145.179V30.344H143.179ZM144.179 36H126.551V38H144.179V36ZM127.551 37V1.172H125.551V37H127.551ZM126.551 2.172H143.555V0.171999H126.551V2.172ZM142.555 1.172V7.776H144.555V1.172H142.555ZM143.555 6.776H133.883V8.776H143.555V6.776ZM132.883 7.776V14.952H134.883V7.776H132.883ZM133.883 15.952H142.931V13.952H133.883V15.952ZM141.931 14.952V21.4H143.931V14.952H141.931ZM150.968 7.88H151.968V6.88H150.968V7.88ZM144.624 7.88H143.624V8.88H144.624V7.88ZM144.624 1.172V0.171999H143.624V1.172H144.624ZM164.644 1.172H165.644V0.171999H164.644V1.172ZM164.644 7.88V8.88H165.644V7.88H164.644ZM158.248 7.88V6.88H157.248V7.88H158.248ZM158.248 37V38H159.248V37H158.248ZM150.968 37H149.968V38H150.968V37ZM150.968 6.88H144.624V8.88H150.968V6.88ZM145.624 7.88V1.172H143.624V7.88H145.624ZM144.624 2.172H164.644V0.171999H144.624V2.172ZM163.644 1.172V7.88H165.644V1.172H163.644ZM164.644 6.88H158.248V8.88H164.644V6.88ZM157.248 7.88V37H159.248V7.88H157.248ZM158.248 36H150.968V38H158.248V36ZM151.968 37V7.88H149.968V37H151.968ZM171.382 7.88H172.382V6.88H171.382V7.88ZM165.038 7.88H164.038V8.88H165.038V7.88ZM165.038 1.172V0.171999H164.038V1.172H165.038ZM185.058 1.172H186.058V0.171999H185.058V1.172ZM185.058 7.88V8.88H186.058V7.88H185.058ZM178.662 7.88V6.88H177.662V7.88H178.662ZM178.662 37V38H179.662V37H178.662ZM171.382 37H170.382V38H171.382V37ZM171.382 6.88H165.038V8.88H171.382V6.88ZM166.038 7.88V1.172H164.038V7.88H166.038ZM165.038 2.172H185.058V0.171999H165.038V2.172ZM184.058 1.172V7.88H186.058V1.172H184.058ZM185.058 6.88H178.662V8.88H185.058V6.88ZM177.662 7.88V37H179.662V7.88H177.662ZM178.662 36H171.382V38H178.662V36ZM172.382 37V7.88H170.382V37H172.382ZM204.224 21.4V22.4H205.224V21.4H204.224ZM195.176 21.4V20.4H194.176V21.4H195.176ZM195.176 30.344H194.176V31.344H195.176V30.344ZM205.472 30.344H206.472V29.344H205.472V30.344ZM205.472 37V38H206.472V37H205.472ZM187.844 37H186.844V38H187.844V37ZM187.844 1.172V0.171999H186.844V1.172H187.844ZM204.848 1.172H205.848V0.171999H204.848V1.172ZM204.848 7.776V8.776H205.848V7.776H204.848ZM195.176 7.776V6.776H194.176V7.776H195.176ZM195.176 14.952H194.176V15.952H195.176V14.952ZM204.224 14.952H205.224V13.952H204.224V14.952ZM204.224 20.4H195.176V22.4H204.224V20.4ZM194.176 21.4V30.344H196.176V21.4H194.176ZM195.176 31.344H205.472V29.344H195.176V31.344ZM204.472 30.344V37H206.472V30.344H204.472ZM205.472 36H187.844V38H205.472V36ZM188.844 37V1.172H186.844V37H188.844ZM187.844 2.172H204.848V0.171999H187.844V2.172ZM203.848 1.172V7.776H205.848V1.172H203.848ZM204.848 6.776H195.176V8.776H204.848V6.776ZM194.176 7.776V14.952H196.176V7.776H194.176ZM195.176 15.952H204.224V13.952H195.176V15.952ZM203.224 14.952V21.4H205.224V14.952H203.224ZM208.309 1.64L208.175 0.649007L207.309 0.766047V1.64H208.309ZM212.261 1.172L212.363 2.16678L212.374 2.16565L212.385 2.16428L212.261 1.172ZM221.725 1.64L221.422 2.59295L221.428 2.59486L221.725 1.64ZM225.469 3.72L224.775 4.44032L224.782 4.44661L224.789 4.45279L225.469 3.72ZM227.549 6.996L228.5 6.68749L228.5 6.68749L227.549 6.996ZM227.133 16.72L226.223 16.3062L226.219 16.3148L226.215 16.3236L227.133 16.72ZM223.753 20.308L223.275 19.4294L222.182 20.0238L222.998 20.9637L223.753 20.308ZM226.249 24.26L225.319 24.6272L225.325 24.6421L225.331 24.6569L226.249 24.26ZM227.601 28.212L226.632 28.4604L226.635 28.472L226.639 28.4835L227.601 28.212ZM228.797 32.424L227.835 32.6987L227.839 32.7125L227.844 32.7262L228.797 32.424ZM230.825 37V38H232.521L231.7 36.5159L230.825 37ZM223.285 37L222.555 37.6839L222.852 38H223.285V37ZM221.933 34.816L221 35.175L221.006 35.1904L221.012 35.2056L221.933 34.816ZM220.945 31.904L221.903 31.6167L221.903 31.6167L220.945 31.904ZM220.009 28.784L219.043 29.0417L219.047 29.0566L219.051 29.0713L220.009 28.784ZM219.073 25.924L218.14 26.283L218.144 26.2954L219.073 25.924ZM217.825 23.688L217.053 24.3237L217.053 24.3237L217.825 23.688ZM216.109 22.596L216.315 21.6174L216.213 21.596H216.109V22.596ZM215.537 22.596V21.596H214.537V22.596H215.537ZM215.537 37V38H216.537V37H215.537ZM208.309 37H207.309V38H208.309V37ZM215.537 16.356L214.537 16.3503L214.531 17.356H215.537V16.356ZM219.749 15.108L220.517 15.7482L220.517 15.7482L219.749 15.108ZM220.061 8.4L219.174 8.86135L219.181 8.87509L219.188 8.8886L220.061 8.4ZM217.305 7.204L217.255 6.20519L217.244 6.20583L217.305 7.204ZM215.589 7.308L215.528 6.30983L214.594 6.36644L214.589 7.30225L215.589 7.308ZM208.443 2.63099C209.714 2.45916 211.021 2.30441 212.363 2.16678L212.159 0.177218C210.797 0.316921 209.469 0.474169 208.175 0.649007L208.443 2.63099ZM212.385 2.16428C213.738 1.99517 214.979 1.912 216.109 1.912V-0.0880003C214.882 -0.0880003 213.557 0.00215864 212.137 0.179722L212.385 2.16428ZM216.109 1.912C218.261 1.912 220.024 2.14823 221.422 2.59293L222.028 0.687074C220.375 0.161102 218.394 -0.0880003 216.109 -0.0880003V1.912ZM221.428 2.59486C222.877 3.04555 223.977 3.67114 224.775 4.44032L226.163 2.99968C225.089 1.96619 223.693 1.20512 222.022 0.685143L221.428 2.59486ZM224.789 4.45279C225.632 5.23593 226.233 6.18099 226.598 7.3045L228.5 6.68749C228.033 5.24568 227.247 4.00673 226.149 2.9872L224.789 4.45279ZM226.598 7.3045C226.976 8.46928 227.173 9.81834 227.173 11.364H229.173C229.173 9.65099 228.954 8.08805 228.5 6.68749L226.598 7.3045ZM227.173 11.364C227.173 13.2974 226.845 14.9362 226.223 16.3062L228.043 17.1338C228.807 15.4531 229.173 13.5213 229.173 11.364H227.173ZM226.215 16.3236C225.653 17.6241 224.693 18.6591 223.275 19.4294L224.23 21.1866C226.003 20.2236 227.295 18.8666 228.051 17.1164L226.215 16.3236ZM222.998 20.9637C224.084 22.2146 224.849 23.4365 225.319 24.6272L227.179 23.8928C226.609 22.4489 225.71 21.0361 224.508 19.6523L222.998 20.9637ZM225.331 24.6569C225.865 25.8915 226.299 27.1592 226.632 28.4604L228.57 27.9636C228.21 26.5608 227.742 25.1938 227.167 23.8631L225.331 24.6569ZM226.639 28.4835C227.02 29.8366 227.419 31.2417 227.835 32.6987L229.758 32.1493C229.343 30.6943 228.944 29.2914 228.563 27.9405L226.639 28.4835ZM227.844 32.7262C228.319 34.2239 229.024 35.8105 229.95 37.4841L231.7 36.5159C230.823 34.9309 230.177 33.4668 229.75 32.1218L227.844 32.7262ZM230.825 36H223.285V38H230.825V36ZM224.015 36.3161C223.595 35.8682 223.202 35.2487 222.854 34.4264L221.012 35.2056C221.427 36.1859 221.935 37.0225 222.555 37.6839L224.015 36.3161ZM222.866 34.457C222.53 33.5819 222.208 32.6354 221.903 31.6167L219.987 32.1913C220.306 33.2526 220.643 34.2474 221 35.175L222.866 34.457ZM221.903 31.6167C221.829 31.3714 221.742 31.0819 221.669 30.8367C221.595 30.5914 221.508 30.3019 221.435 30.0567C221.381 29.8761 221.372 29.8472 221.318 29.6667C221.315 29.6563 221.306 29.6283 221.303 29.6179C221.294 29.5887 221.297 29.5984 221.289 29.5692C221.287 29.5649 221.283 29.549 221.281 29.5448C221.28 29.5405 221.275 29.5246 221.274 29.5204C221.273 29.5162 221.268 29.5003 221.267 29.496C221.265 29.4918 221.261 29.4759 221.259 29.4717C221.258 29.4674 221.253 29.4515 221.252 29.4473C221.251 29.443 221.246 29.4271 221.245 29.4229C221.243 29.4187 221.239 29.4028 221.237 29.3985C221.236 29.3943 221.231 29.3784 221.23 29.3742C221.229 29.3699 221.224 29.354 221.223 29.3498C221.221 29.3455 221.217 29.3296 221.215 29.3254C221.214 29.3212 221.209 29.3053 221.208 29.301C221.207 29.2968 221.202 29.2809 221.201 29.2767C221.137 29.0654 221.03 28.7079 220.967 28.4967L219.051 29.0713C219.058 29.0947 219.103 29.243 219.11 29.2663C219.115 29.2852 219.162 29.4425 219.168 29.4613C219.174 29.4802 219.221 29.6375 219.227 29.6563C219.232 29.6752 219.279 29.8325 219.285 29.8513C219.291 29.8702 219.338 30.0275 219.344 30.0463C219.349 30.0652 219.396 30.2225 219.402 30.2413C219.408 30.2602 219.455 30.4175 219.461 30.4363C219.466 30.4552 219.513 30.6125 219.519 30.6313C219.521 30.639 219.524 30.6481 219.526 30.6557C219.529 30.6634 219.531 30.6725 219.534 30.6801C219.536 30.6877 219.539 30.6968 219.541 30.7045C219.543 30.7121 219.546 30.7212 219.548 30.7288C219.551 30.7365 219.553 30.7456 219.556 30.7532C219.558 30.7609 219.561 30.77 219.563 30.7776C219.565 30.7852 219.568 30.7943 219.57 30.802C219.573 30.8096 219.575 30.8187 219.578 30.8263C219.58 30.834 219.583 30.8431 219.585 30.8507C219.587 30.8584 219.59 30.8675 219.592 30.8751C219.595 30.8827 219.597 30.8918 219.6 30.8995C219.602 30.9071 219.605 30.9162 219.607 30.9238C219.609 30.9315 219.612 30.9406 219.614 30.9482C219.617 30.9559 219.619 30.965 219.622 30.9726C219.624 30.9802 219.627 30.9893 219.629 30.997C219.631 31.0046 219.634 31.0137 219.636 31.0213C219.638 31.029 219.641 31.0381 219.643 31.0457C219.646 31.0534 219.648 31.0625 219.651 31.0701C219.653 31.0777 219.656 31.0868 219.658 31.0945C219.66 31.1021 219.663 31.1112 219.665 31.1188C219.668 31.1265 219.67 31.1356 219.673 31.1432C219.675 31.1509 219.678 31.16 219.68 31.1676C219.682 31.1752 219.685 31.1843 219.687 31.192C219.69 31.1996 219.692 31.2087 219.695 31.2163C219.697 31.224 219.7 31.2331 219.702 31.2407C219.704 31.2484 219.707 31.2575 219.709 31.2651C219.712 31.2727 219.714 31.2818 219.717 31.2895C219.719 31.2971 219.722 31.3062 219.724 31.3138C219.726 31.3215 219.729 31.3306 219.731 31.3382C219.734 31.3459 219.736 31.355 219.739 31.3626C219.741 31.3702 219.744 31.3793 219.746 31.387C219.748 31.3946 219.751 31.4037 219.753 31.4113C219.755 31.419 219.758 31.4281 219.76 31.4357C219.763 31.4434 219.765 31.4525 219.768 31.4601C219.77 31.4677 219.773 31.4768 219.775 31.4845C219.777 31.4921 219.78 31.5012 219.782 31.5088C219.785 31.5165 219.787 31.5256 219.79 31.5332C219.792 31.5409 219.795 31.55 219.797 31.5576C219.799 31.5652 219.802 31.5743 219.804 31.582C219.807 31.5896 219.809 31.5987 219.812 31.6063C219.814 31.614 219.817 31.6231 219.819 31.6307C219.821 31.6384 219.824 31.6475 219.826 31.6551C219.829 31.6627 219.831 31.6718 219.834 31.6795C219.836 31.6871 219.839 31.6962 219.841 31.7038C219.843 31.7115 219.846 31.7206 219.848 31.7282C219.851 31.7359 219.853 31.745 219.856 31.7526C219.858 31.7602 219.861 31.7693 219.863 31.777C219.865 31.7846 219.868 31.7937 219.87 31.8013C219.872 31.809 219.875 31.8181 219.877 31.8257C219.88 31.8334 219.882 31.8425 219.885 31.8501C219.887 31.8577 219.89 31.8668 219.892 31.8745C219.894 31.8821 219.897 31.8912 219.899 31.8988C219.902 31.9065 219.904 31.9156 219.907 31.9232C219.909 31.9309 219.912 31.94 219.914 31.9476C219.916 31.9552 219.919 31.9643 219.921 31.972C219.924 31.9796 219.926 31.9887 219.929 31.9963C219.931 32.004 219.934 32.0131 219.936 32.0207C219.938 32.0284 219.941 32.0375 219.943 32.0451C219.946 32.0527 219.948 32.0618 219.951 32.0695C219.953 32.0771 219.956 32.0862 219.958 32.0938C219.96 32.1015 219.963 32.1106 219.965 32.1182C219.968 32.1259 219.97 32.135 219.973 32.1426C219.975 32.1502 219.978 32.1593 219.98 32.167C219.982 32.1746 219.985 32.1837 219.987 32.1913L221.903 31.6167ZM220.975 28.5263C220.689 27.4534 220.365 26.4615 220.001 25.5526L218.144 26.2954C218.474 27.1198 218.774 28.0346 219.043 29.0417L220.975 28.5263ZM220.006 25.565C219.631 24.5887 219.166 23.7432 218.597 23.0523L217.053 24.3237C217.455 24.8114 217.822 25.4566 218.14 26.283L220.006 25.565ZM218.597 23.0523C217.988 22.3126 217.225 21.8091 216.315 21.6174L215.903 23.5745C216.31 23.6602 216.692 23.8848 217.053 24.3237L218.597 23.0523ZM216.109 21.596H215.537V23.596H216.109V21.596ZM214.537 22.596V37H216.537V22.596H214.537ZM215.537 36H208.309V38H215.537V36ZM209.309 37V1.64H207.309V37H209.309ZM215.537 17.356H215.901V15.356H215.537V17.356ZM215.901 17.356C217.863 17.356 219.532 16.9299 220.517 15.7482L218.981 14.4678C218.579 14.9501 217.683 15.356 215.901 15.356V17.356ZM220.517 15.7482C221.405 14.6829 221.789 13.2851 221.789 11.676H219.789C219.789 12.9789 219.48 13.8691 218.981 14.4678L220.517 15.7482ZM221.789 11.676C221.789 10.2415 221.525 8.96822 220.933 7.9114L219.188 8.8886C219.567 9.56511 219.789 10.4758 219.789 11.676H221.789ZM220.948 7.93865C220.243 6.58252 218.841 6.12593 217.255 6.20525L217.355 8.20275C218.542 8.1434 218.978 8.48414 219.174 8.86135L220.948 7.93865ZM217.244 6.20583L215.528 6.30983L215.649 8.30617L217.365 8.20217L217.244 6.20583ZM214.589 7.30225L214.537 16.3503L216.537 16.3617L216.589 7.31374L214.589 7.30225Z" fill="black" mask="url(#path-1-outside-1_6_2)"/>
</g>
<defs>
<filter id="filter0_d_6_2" x="0.0159912" y="0.807999" width="234.809" height="44.452" filterUnits="userSpaceOnUse" color-interpolation-filters="sRGB">
<feFlood flood-opacity="0" result="BackgroundImageFix"/>
<feColorMatrix in="SourceAlpha" type="matrix" values="0 0 0 0 0 0 0 0 0 0 0 0 0 0 0 0 0 0 127 0" result="hardAlpha"/>
<feOffset dy="4"/>
<feGaussianBlur stdDeviation="2"/>
<feComposite in2="hardAlpha" operator="out"/>
<feColorMatrix type="matrix" values="0 0 0 0 0 0 0 0 0 0 0 0 0 0 0 0 0 0 0.25 0"/>
<feBlend mode="normal" in2="BackgroundImageFix" result="effect1_dropShadow_6_2"/>
<feBlend mode="normal" in="SourceGraphic" in2="effect1_dropShadow_6_2" result="shape"/>
</filter>
</defs>
</svg>
